<mxfile host="app.diagrams.net" modified="2024-03-06T18:14:47.426Z" agent="Mozilla/5.0 (Windows NT 10.0; Win64; x64) AppleWebKit/537.36 (KHTML, like Gecko) Chrome/122.0.0.0 Safari/537.36" etag="OEmMJ5khzcvY9mQbiBub" version="24.0.2" type="device">
  <diagram name="P치gina-1" id="a8Aatz65cUyanL8zeEt0">
    <mxGraphModel dx="1434" dy="782" grid="1" gridSize="10" guides="1" tooltips="1" connect="1" arrows="1" fold="1" page="1" pageScale="1" pageWidth="827" pageHeight="1169" math="0" shadow="0">
      <root>
        <mxCell id="0" />
        <mxCell id="1" parent="0" />
        <mxCell id="VOu4mNLq-kn0uGcjgKXv-1" value="Usu치rio" style="swimlane;horizontal=0;whiteSpace=wrap;html=1;" parent="1" vertex="1">
          <mxGeometry x="40" y="240" width="680" height="200" as="geometry" />
        </mxCell>
        <mxCell id="VOu4mNLq-kn0uGcjgKXv-7" style="edgeStyle=orthogonalEdgeStyle;rounded=0;orthogonalLoop=1;jettySize=auto;html=1;exitX=1;exitY=0.5;exitDx=0;exitDy=0;entryX=0;entryY=0.5;entryDx=0;entryDy=0;" parent="VOu4mNLq-kn0uGcjgKXv-1" source="VOu4mNLq-kn0uGcjgKXv-5" target="VOu4mNLq-kn0uGcjgKXv-6" edge="1">
          <mxGeometry relative="1" as="geometry" />
        </mxCell>
        <mxCell id="VOu4mNLq-kn0uGcjgKXv-5" value="" style="ellipse;whiteSpace=wrap;html=1;aspect=fixed;fillColor=#d5e8d4;strokeColor=#82b366;" parent="VOu4mNLq-kn0uGcjgKXv-1" vertex="1">
          <mxGeometry x="40" y="77.5" width="45" height="45" as="geometry" />
        </mxCell>
        <mxCell id="VOu4mNLq-kn0uGcjgKXv-6" value="Informar usu치rio" style="rounded=1;whiteSpace=wrap;html=1;" parent="VOu4mNLq-kn0uGcjgKXv-1" vertex="1">
          <mxGeometry x="180" y="75" width="110" height="50" as="geometry" />
        </mxCell>
        <mxCell id="nA6RqpTSz7VnikG-lTWN-6" style="edgeStyle=orthogonalEdgeStyle;rounded=0;orthogonalLoop=1;jettySize=auto;html=1;entryX=0;entryY=0.5;entryDx=0;entryDy=0;" edge="1" parent="VOu4mNLq-kn0uGcjgKXv-1" source="nA6RqpTSz7VnikG-lTWN-2" target="nA6RqpTSz7VnikG-lTWN-7">
          <mxGeometry relative="1" as="geometry">
            <mxPoint x="600" y="100" as="targetPoint" />
          </mxGeometry>
        </mxCell>
        <mxCell id="nA6RqpTSz7VnikG-lTWN-8" style="edgeStyle=orthogonalEdgeStyle;rounded=0;orthogonalLoop=1;jettySize=auto;html=1;exitX=0.5;exitY=1;exitDx=0;exitDy=0;" edge="1" parent="VOu4mNLq-kn0uGcjgKXv-1" source="nA6RqpTSz7VnikG-lTWN-2">
          <mxGeometry relative="1" as="geometry">
            <mxPoint x="445" y="160" as="targetPoint" />
          </mxGeometry>
        </mxCell>
        <mxCell id="nA6RqpTSz7VnikG-lTWN-2" value="Informar motivo da denuncia" style="rounded=1;whiteSpace=wrap;html=1;" vertex="1" parent="VOu4mNLq-kn0uGcjgKXv-1">
          <mxGeometry x="390" y="75" width="110" height="50" as="geometry" />
        </mxCell>
        <mxCell id="nA6RqpTSz7VnikG-lTWN-1" style="edgeStyle=orthogonalEdgeStyle;rounded=0;orthogonalLoop=1;jettySize=auto;html=1;exitX=1;exitY=0.5;exitDx=0;exitDy=0;" edge="1" parent="VOu4mNLq-kn0uGcjgKXv-1" source="VOu4mNLq-kn0uGcjgKXv-6" target="nA6RqpTSz7VnikG-lTWN-2">
          <mxGeometry relative="1" as="geometry">
            <mxPoint x="470" y="100" as="targetPoint" />
          </mxGeometry>
        </mxCell>
        <mxCell id="nA6RqpTSz7VnikG-lTWN-7" value="" style="ellipse;whiteSpace=wrap;html=1;aspect=fixed;fillColor=#f8cecc;strokeColor=#b85450;" vertex="1" parent="VOu4mNLq-kn0uGcjgKXv-1">
          <mxGeometry x="600" y="77.5" width="45" height="45" as="geometry" />
        </mxCell>
        <mxCell id="VOu4mNLq-kn0uGcjgKXv-4" value="Horizontal Container" style="swimlane;horizontal=0;whiteSpace=wrap;html=1;" parent="1" vertex="1">
          <mxGeometry x="40" y="800" width="720" height="200" as="geometry" />
        </mxCell>
        <mxCell id="VOu4mNLq-kn0uGcjgKXv-2" value="Usu치rio 2" style="swimlane;horizontal=0;whiteSpace=wrap;html=1;" parent="1" vertex="1">
          <mxGeometry x="40" y="440" width="680" height="200" as="geometry" />
        </mxCell>
      </root>
    </mxGraphModel>
  </diagram>
</mxfile>
